<?xml version="1.0" encoding="utf-8"?>
<!-- Generator: Adobe Illustrator 16.0.0, SVG Export Plug-In . SVG Version: 6.00 Build 0)  -->
<!DOCTYPE svg PUBLIC "-//W3C//DTD SVG 1.1//EN" "http://www.w3.org/Graphics/SVG/1.1/DTD/svg11.dtd">
<svg version="1.1" id="Layer_1" xmlns="http://www.w3.org/2000/svg" xmlns:xlink="http://www.w3.org/1999/xlink" x="0px"
	y="0px" width="135.65px" height="44.604px" viewBox="0 0 135.65 44.604" xml:space="preserve">
	<g>
		<g>
			<path fill="#585EAA" d="M0.25,0.293h16.661v4.512H6.373v3.838h9.668v4.512H6.373v3.838h10.506v4.512H0.25V0.293z" />
			<path fill="#FFFFFF" d="M18.438,21.504l7.767-21.211h8.347l7.734,21.211H35.68l-1.402-4.16h-7.814l-1.386,4.16H18.438z
			 M32.859,13.125l-2.4-7.119h-0.193l-2.385,7.119H32.859z" />
			<path fill="#FFFFFF" d="M54.577,5.178C54.04,4.792,53.257,4.6,52.226,4.6c-0.988,0-1.73,0.158-2.225,0.476s-0.74,0.745-0.74,1.282
			c0,0.518,0.264,0.935,0.789,1.252c0.527,0.317,1.338,0.584,2.434,0.799l1.934,0.41c2.471,0.479,4.297,1.257,5.479,2.336
			s1.783,2.449,1.805,4.109c-0.012,1.377-0.393,2.551-1.145,3.522s-1.832,1.712-3.238,2.22c-1.408,0.508-3.094,0.762-5.061,0.762
			c-3.104,0-5.537-0.635-7.299-1.904s-2.659-3.174-2.691-5.713h5.865c0.043,0.967,0.419,1.711,1.129,2.233
			c0.709,0.522,1.676,0.784,2.9,0.784c1.02,0,1.813-0.174,2.377-0.521s0.855-0.808,0.877-1.384c-0.021-0.518-0.297-0.938-0.828-1.26
			c-0.533-0.322-1.449-0.615-2.748-0.879l-2.354-0.469c-4.404-0.879-6.606-2.861-6.606-5.947c-0.011-1.318,0.382-2.485,1.177-3.501
			s1.901-1.805,3.319-2.366S50.409,0,52.226,0c1.848,0,3.459,0.283,4.834,0.85s2.436,1.367,3.182,2.402s1.125,2.236,1.137,3.604
			h-5.898C55.415,6.123,55.114,5.563,54.577,5.178z" />
			<path fill="#FFFFFF" d="M62.712,0.293h20.109v4.512h-7.025v16.699h-6.059V4.805h-7.025V0.293z" />
			<path fill="#585EAA" d="M0.25,23.293h9.99c1.74,0,3.22,0.218,4.439,0.651c1.219,0.436,2.137,1.051,2.755,1.846
			c0.617,0.797,0.927,1.741,0.927,2.835c0,0.771-0.188,1.478-0.564,2.116c-0.376,0.641-0.902,1.178-1.579,1.611
			c-0.677,0.436-1.455,0.735-2.336,0.901v0.205c0.978,0.029,1.877,0.259,2.699,0.688c0.821,0.43,1.474,1.022,1.957,1.778
			c0.483,0.758,0.726,1.625,0.726,2.602c0,1.152-0.33,2.18-0.991,3.082c-0.66,0.904-1.608,1.611-2.844,2.125
			c-1.235,0.512-2.686,0.77-4.351,0.77H0.25V23.293z M11.231,31.35c0.542-0.371,0.813-0.889,0.813-1.553s-0.258-1.182-0.773-1.553
			s-1.203-0.557-2.063-0.557H6.373v4.219h2.739C9.982,31.906,10.688,31.721,11.231,31.35z M11.956,39.465
			c0.553-0.371,0.83-0.918,0.83-1.641c0-0.771-0.285-1.371-0.854-1.795c-0.569-0.426-1.348-0.637-2.336-0.637H6.373v4.629h3.126
			C10.584,40.021,11.402,39.836,11.956,39.465z" />
			<path fill="#FFFFFF" d="M20.791,23.293h6.123v16.699h9.507v4.512h-15.63V23.293z" />
			<path fill="#FFFFFF" d="M37.449,44.504l7.767-21.211h8.348l7.734,21.211H54.69l-1.402-4.16h-7.814l-1.386,4.16H37.449z
			 M51.87,36.125l-2.4-7.119h-0.193l-2.385,7.119H51.87z" />
			<path fill="#FFFFFF"
				d="M62.825,41.398l11.117-13.594H62.856v-4.512h18.885v3.105L70.624,39.992H81.71v4.512H62.825V41.398z" />
			<path fill="#FFFFFF"
				d="M84.106,23.293h16.661v4.512H90.229v3.838h9.668v4.512h-9.668v3.838h10.506v4.512H84.106V23.293z" />
		</g>
		<g>
			<path fill="#FFFFFF"
				d="M108.521,38.851c-0.213-0.137-0.473-0.205-0.777-0.205c-0.281,0-0.514,0.047-0.695,0.139
			c-0.184,0.094-0.271,0.221-0.268,0.381c-0.016,0.268,0.262,0.451,0.828,0.547l1.623,0.273c0.838,0.137,1.459,0.369,1.865,0.697
			s0.611,0.766,0.615,1.313c-0.004,0.514-0.176,0.965-0.51,1.354c-0.336,0.387-0.797,0.686-1.383,0.898
			c-0.588,0.211-1.254,0.318-2.002,0.318c-0.807,0-1.504-0.104-2.094-0.309c-0.588-0.205-1.051-0.496-1.383-0.871
			c-0.334-0.377-0.527-0.816-0.584-1.322h2.828c0.045,0.236,0.178,0.42,0.398,0.553s0.504,0.199,0.85,0.199
			c0.291,0,0.527-0.047,0.711-0.141s0.277-0.221,0.281-0.379c-0.004-0.15-0.084-0.271-0.236-0.359
			c-0.152-0.09-0.395-0.16-0.725-0.215l-1.43-0.232c-0.822-0.137-1.441-0.389-1.857-0.756s-0.623-0.84-0.623-1.418
			c0-0.506,0.15-0.939,0.451-1.299c0.301-0.361,0.73-0.635,1.289-0.824s1.221-0.283,1.988-0.283s1.434,0.098,1.996,0.297
			c0.564,0.197,1.004,0.484,1.316,0.857s0.482,0.818,0.508,1.334h-2.617C108.857,39.169,108.734,38.987,108.521,38.851z" />
			<path fill="#FFFFFF" d="M114.139,44.087c-0.635-0.32-1.121-0.768-1.459-1.344s-0.508-1.246-0.508-2.006
			c0-0.762,0.17-1.43,0.508-2.008c0.338-0.576,0.824-1.023,1.459-1.342c0.635-0.32,1.383-0.479,2.244-0.479
			c0.863,0,1.609,0.158,2.242,0.479c0.631,0.318,1.115,0.766,1.451,1.342c0.336,0.578,0.504,1.246,0.504,2.008
			c0,0.76-0.168,1.43-0.504,2.006s-0.82,1.023-1.451,1.344c-0.633,0.318-1.379,0.479-2.242,0.479
			C115.521,44.565,114.773,44.405,114.139,44.087z M117.334,42.132c0.229-0.348,0.342-0.816,0.342-1.408
			c0-0.598-0.113-1.068-0.342-1.412s-0.539-0.516-0.936-0.516c-0.412,0-0.734,0.172-0.971,0.516
			c-0.234,0.344-0.354,0.814-0.354,1.412c0,0.592,0.119,1.061,0.354,1.408c0.236,0.346,0.559,0.52,0.971,0.52
			C116.795,42.651,117.105,42.478,117.334,42.132z" />
			<path fill="#FFFFFF" d="M126.24,38.878h-1.504v5.551h-2.842v-5.551h-1.053v-1.873h1.053v-0.26c0-0.885,0.256-1.553,0.766-2.004
			c0.512-0.45,1.225-0.676,2.137-0.676c0.596,0,1.123,0.046,1.578,0.137v1.873c-0.361-0.027-0.596-0.041-0.707-0.041
			c-0.621,0-0.932,0.236-0.932,0.711v0.26h1.504V38.878z" />
			<path fill="#FFFFFF" d="M131.811,38.878h-1.43v3.172c0,0.191,0.059,0.322,0.174,0.396c0.115,0.072,0.297,0.109,0.549,0.109
			c0.285,0,0.557-0.014,0.813-0.041v1.928c-0.422,0.063-0.873,0.096-1.354,0.096c-1.008,0-1.766-0.182-2.271-0.545
			c-0.506-0.361-0.758-0.924-0.752-1.684v-3.432h-1.053v-1.873h1.053v-1.777h2.842v1.777h1.43V38.878z" />
			<path fill="#FFFFFF" d="M133.455,44.401c-0.225-0.119-0.402-0.279-0.533-0.482s-0.193-0.426-0.188-0.666
			c-0.006-0.238,0.057-0.457,0.188-0.656c0.131-0.201,0.309-0.361,0.533-0.479c0.227-0.119,0.471-0.178,0.738-0.178
			c0.25,0,0.488,0.059,0.713,0.178c0.227,0.117,0.406,0.277,0.543,0.479c0.135,0.199,0.201,0.418,0.201,0.656
			c0,0.24-0.066,0.463-0.201,0.666c-0.137,0.203-0.316,0.363-0.543,0.482c-0.225,0.117-0.463,0.178-0.713,0.178
			C133.926,44.579,133.682,44.519,133.455,44.401z" />
		</g>
	</g>
</svg>